<svg width="5" height="137" viewBox="0 0 5 137" fill="none" xmlns="http://www.w3.org/2000/svg">
<g clip-path="url(#clip0_7_6219)">
<circle cx="2.5" cy="2" r="1" fill="#778FB1"/>
<circle cx="2.5" cy="8" r="1" fill="#778FB1"/>
<circle cx="2.5" cy="14" r="1" fill="#778FB1"/>
<circle cx="2.5" cy="20" r="1" fill="#778FB1"/>
<circle cx="2.5" cy="26" r="1" fill="#778FB1"/>
<circle cx="2.5" cy="32" r="1" fill="#778FB1"/>
<circle cx="2.5" cy="38" r="1" fill="#778FB1"/>
<circle cx="2.5" cy="44" r="1" fill="#778FB1"/>
<circle cx="2.5" cy="50" r="1" fill="#778FB1"/>
<circle cx="2.5" cy="56" r="1" fill="#778FB1"/>
<circle cx="2.5" cy="62" r="1" fill="#778FB1"/>
<circle cx="2.5" cy="68" r="1" fill="#778FB1"/>
<circle cx="2.5" cy="74" r="1" fill="#778FB1"/>
<circle cx="2.5" cy="80" r="1" fill="#778FB1"/>
<circle cx="2.5" cy="86" r="1" fill="#778FB1"/>
<circle cx="2.5" cy="92" r="1" fill="#778FB1"/>
<circle cx="2.5" cy="98" r="1" fill="#778FB1"/>
<circle cx="2.5" cy="104" r="1" fill="#778FB1"/>
<circle cx="2.5" cy="110" r="1" fill="#778FB1"/>
<circle cx="2.5" cy="116" r="1" fill="#778FB1"/>
<circle cx="2.5" cy="122" r="1" fill="#778FB1"/>
<circle cx="2.5" cy="128" r="1" fill="#778FB1"/>
<circle cx="2.5" cy="134" r="1" fill="#778FB1"/>
</g>
<defs>
<clipPath id="clip0_7_6219">
<rect width="5" height="144" fill="white" transform="translate(0 -7)"/>
</clipPath>
</defs>
</svg>
